<svg width="125" height="30" viewBox="0 0 125 30" fill="none" xmlns="http://www.w3.org/2000/svg">
<g clip-path="url(#clip0_1_94)">
<path d="M35.6367 21.0756H43.8872V18.7263H38.1526V7.75635H35.6367V21.0756Z" fill="white"/>
<path d="M48.845 21.3532C49.844 21.3532 50.7227 21.1312 51.4811 20.6873C52.2457 20.2371 52.8408 19.6174 53.2663 18.8282C53.6979 18.0327 53.9138 17.117 53.9138 16.0811C53.9138 15.0513 53.701 14.1418 53.2755 13.3524C52.85 12.557 52.255 11.9342 51.4904 11.4841C50.7319 11.0339 49.8502 10.8088 48.845 10.8088C47.8584 10.8088 46.9858 11.0309 46.2274 11.4748C45.469 11.9188 44.8739 12.5385 44.4422 13.334C44.0106 14.1232 43.7948 15.0389 43.7948 16.0811C43.7948 17.1108 44.0045 18.0234 44.4238 18.8189C44.8492 19.6082 45.4412 20.2279 46.1997 20.678C46.9582 21.1282 47.8399 21.3532 48.845 21.3532ZM48.845 19.0039C48.0619 19.0039 47.4669 18.7418 47.0599 18.2177C46.659 17.6874 46.4587 16.9752 46.4587 16.0811C46.4587 15.2116 46.6498 14.5086 47.0321 13.9721C47.4206 13.4296 48.0249 13.1582 48.845 13.1582C49.6405 13.1582 50.2386 13.4234 50.6394 13.9537C51.0464 14.484 51.2499 15.1931 51.2499 16.0811C51.2499 16.9382 51.0495 17.6411 50.6486 18.1899C50.254 18.7325 49.6528 19.0039 48.845 19.0039Z" fill="white"/>
<path d="M58.8894 21.3532C59.3581 21.3532 59.7897 21.2977 60.1844 21.1867C60.5852 21.0758 60.949 20.9185 61.2758 20.715V21.7232C61.2881 22.0932 61.1925 22.4015 60.989 22.6482C60.7917 22.901 60.5266 23.0891 60.1936 23.2124C59.8606 23.3419 59.506 23.4067 59.1299 23.4067C58.7784 23.4067 58.4516 23.3295 58.1495 23.1754C57.8535 23.0213 57.6253 22.7962 57.465 22.5002L55.1341 23.6286C55.5164 24.2761 56.0621 24.7971 56.7713 25.1918C57.4804 25.5926 58.2605 25.793 59.1114 25.793C59.8452 25.793 60.5266 25.6943 61.1555 25.497C61.7845 25.3059 62.3148 25.013 62.7464 24.6183C63.1842 24.2237 63.4833 23.7211 63.6437 23.1107C63.6991 22.8948 63.7361 22.6759 63.7546 22.4539C63.7793 22.2381 63.7916 22.0069 63.7916 21.7602V11.0863H61.5903V11.6413C61.2511 11.3761 60.8657 11.1726 60.4341 11.0309C60.0086 10.8828 59.5369 10.8088 59.0189 10.8088C58.0631 10.8088 57.2307 11.037 56.5216 11.4933C55.8124 11.9496 55.2605 12.5755 54.8659 13.371C54.4774 14.1602 54.2832 15.0636 54.2832 16.0811C54.2832 17.08 54.4743 17.9772 54.8567 18.7726C55.2451 19.5681 55.7847 20.1971 56.4753 20.6596C57.1659 21.122 57.9706 21.3532 58.8894 21.3532ZM59.2964 19.1149C58.7538 19.1149 58.3098 18.9792 57.9645 18.7079C57.6192 18.4366 57.3632 18.0728 57.1968 17.6165C57.0303 17.154 56.947 16.6422 56.947 16.0811C56.947 15.5261 57.0333 15.0205 57.206 14.5641C57.3787 14.1016 57.6438 13.7348 58.0014 13.4634C58.3652 13.1859 58.8278 13.0472 59.3889 13.0472C60.1782 13.0472 60.7424 13.3278 61.0815 13.8889C61.4207 14.4439 61.5903 15.1746 61.5903 16.0811C61.5903 16.9875 61.4176 17.7213 61.0723 18.2824C60.7331 18.8374 60.1412 19.1149 59.2964 19.1149Z" fill="white"/>
<path d="M69.768 21.3532C70.767 21.3532 71.6457 21.1312 72.4041 20.6873C73.1686 20.2371 73.7638 19.6174 74.1889 18.8282C74.6206 18.0327 74.8365 17.117 74.8365 16.0811C74.8365 15.0513 74.6242 14.1418 74.1984 13.3524C73.7732 12.557 73.178 11.9342 72.4133 11.4841C71.6549 11.0339 70.7731 10.8088 69.768 10.8088C68.7814 10.8088 67.9088 11.0309 67.1504 11.4748C66.392 11.9188 65.7969 12.5385 65.3652 13.334C64.9336 14.1232 64.7178 15.0389 64.7178 16.0811C64.7178 17.1108 64.9274 18.0234 65.3468 18.8189C65.7722 19.6082 66.3642 20.2279 67.1226 20.678C67.8811 21.1282 68.7629 21.3532 69.768 21.3532ZM69.768 19.0039C68.9849 19.0039 68.3898 18.7418 67.9828 18.2177C67.582 17.6874 67.3817 16.9752 67.3817 16.0811C67.3817 15.2116 67.5728 14.5086 67.9551 13.9721C68.3436 13.4296 68.9479 13.1582 69.768 13.1582C70.5635 13.1582 71.1616 13.4234 71.5624 13.9537C71.9694 14.484 72.1729 15.1931 72.1729 16.0811C72.1729 16.9382 71.9724 17.6411 71.5716 18.1899C71.177 18.7325 70.5758 19.0039 69.768 19.0039Z" fill="white"/>
<path d="M75.9443 9.69884H78.4602V7.479H75.9443V9.69884ZM75.9443 21.0757H78.4602V11.0863H75.9443V21.0757Z" fill="white"/>
<path d="M80.1045 25.5155H82.6386V20.715C82.9657 20.9185 83.3261 21.0758 83.7208 21.1867C84.1219 21.2977 84.5565 21.3532 85.0253 21.3532C85.9439 21.3532 86.7491 21.122 87.4395 20.6596C88.1299 20.1971 88.6663 19.5681 89.0485 18.7726C89.4373 17.9772 89.6314 17.08 89.6314 16.0811C89.6314 15.0636 89.4344 14.1602 89.0398 13.371C88.651 12.5755 88.1023 11.9496 87.393 11.4933C86.6837 11.037 85.8516 10.8088 84.8959 10.8088C84.3777 10.8088 83.9032 10.8828 83.4715 11.0309C83.0456 11.1726 82.6634 11.3761 82.3247 11.6413V11.0863H80.1045V25.5155ZM84.6183 19.1149C83.7796 19.1149 83.1881 18.8374 82.8421 18.2824C82.4969 17.7213 82.3247 16.9875 82.3247 16.0811C82.3247 15.1746 82.494 14.4439 82.8334 13.8889C83.1786 13.3278 83.7426 13.0472 84.526 13.0472C85.087 13.0472 85.5464 13.1859 85.9039 13.4634C86.268 13.7348 86.5362 14.1016 86.7084 14.5641C86.8814 15.0205 86.9679 15.5261 86.9679 16.0811C86.9679 16.6422 86.8843 17.154 86.7179 17.6165C86.5514 18.0728 86.2956 18.4366 85.9504 18.7079C85.6052 18.9792 85.1612 19.1149 84.6183 19.1149Z" fill="white"/>
<path d="M94.19 21.3532C95.4967 21.3532 96.5207 21.0604 97.2605 20.4745C98.0003 19.8887 98.3703 19.0841 98.3703 18.0604C98.3703 17.2835 98.1297 16.67 97.6493 16.2198C97.174 15.7697 96.3666 15.3966 95.2256 15.1006C94.4487 14.9032 93.8688 14.7429 93.4865 14.6196C93.1108 14.4963 92.8608 14.3761 92.7373 14.2589C92.6203 14.1418 92.5621 13.9968 92.5621 13.8242C92.5621 13.5343 92.7002 13.3124 92.9778 13.1582C93.262 13.004 93.6348 12.9424 94.097 12.9732C95.0774 13.0472 95.6144 13.4665 95.7067 14.2311L98.278 13.7686C98.1486 12.8623 97.7046 12.1439 96.9458 11.6136C96.1878 11.0771 95.2198 10.8088 94.0418 10.8088C92.8332 10.8088 91.8681 11.0925 91.1464 11.6598C90.4255 12.2271 90.0643 12.9917 90.0643 13.9537C90.0643 14.7183 90.3143 15.3226 90.8136 15.7665C91.3128 16.2044 92.1733 16.5805 93.3942 16.895C94.1159 17.0862 94.6457 17.2403 94.9851 17.3575C95.3303 17.4746 95.5527 17.5949 95.6508 17.7182C95.7496 17.8354 95.799 17.9926 95.799 18.1899C95.799 18.5044 95.6755 18.7511 95.4291 18.9299C95.1828 19.1025 94.831 19.1889 94.3746 19.1889C93.8194 19.1889 93.3601 19.0563 92.9967 18.7911C92.6391 18.526 92.4073 18.1591 92.3027 17.6905L89.7314 18.0789C89.8979 19.121 90.3666 19.9288 91.1377 20.5023C91.9146 21.0696 92.932 21.3532 94.19 21.3532Z" fill="white"/>
<path d="M103.012 21.3714C103.733 21.3714 104.362 21.2511 104.899 21.0106C105.435 20.7702 105.885 20.4495 106.249 20.0487V21.0754H108.469V11.0859H105.935V16.1547C105.935 16.7713 105.863 17.2707 105.722 17.6531C105.586 18.0293 105.411 18.316 105.195 18.5133C104.979 18.7045 104.748 18.8339 104.501 18.9018C104.254 18.9696 104.023 19.0035 103.807 19.0035C103.271 19.0035 102.855 18.8832 102.559 18.6428C102.269 18.4023 102.059 18.1032 101.929 17.7456C101.8 17.3879 101.723 17.0334 101.698 16.6819C101.674 16.3242 101.661 16.0314 101.661 15.8032V11.0859H99.1082V16.6912C99.1082 16.8576 99.1206 17.1228 99.1453 17.4866C99.17 17.8504 99.2412 18.2543 99.3582 18.6983C99.4752 19.1361 99.6693 19.5585 99.9411 19.9654C100.219 20.3724 100.604 20.7085 101.097 20.9737C101.59 21.2388 102.229 21.3714 103.012 21.3714Z" fill="white"/>
<path d="M109.926 21.0756H112.46V15.0264C112.46 14.453 112.617 13.9875 112.932 13.6298C113.252 13.266 113.674 13.0841 114.199 13.0841C114.748 13.0841 115.176 13.2691 115.485 13.6391C115.799 14.0029 115.956 14.5147 115.956 15.1745V21.0756H118.472V15.0264C118.472 14.453 118.629 13.9875 118.944 13.6298C119.264 13.266 119.687 13.0841 120.211 13.0841C120.76 13.0841 121.188 13.2691 121.496 13.6391C121.811 14.0029 121.969 14.5147 121.969 15.1745V21.0756H124.484V14.5085C124.484 13.4171 124.191 12.5353 123.605 11.8631C123.026 11.1849 122.166 10.8457 121.025 10.8457C120.384 10.8457 119.795 10.9844 119.258 11.2619C118.721 11.5395 118.293 11.9187 117.972 12.3996C117.713 11.931 117.344 11.5549 116.862 11.2712C116.381 10.9876 115.783 10.8457 115.068 10.8457C114.463 10.8457 113.909 10.966 113.403 11.2065C112.897 11.4408 112.478 11.7645 112.145 12.1776V11.0862H109.926V21.0756Z" fill="white"/>
<path d="M14.5349 0C6.50749 0 0 6.50749 0 14.5349C8.0274 14.5349 14.5349 8.0274 14.5349 0Z" fill="white"/>
<path d="M14.5342 29.0698C22.5616 29.0698 29.0691 22.5623 29.0691 14.5349C21.0417 14.5349 14.5342 21.0424 14.5342 29.0698Z" fill="white"/>
<path d="M14.5342 0C22.5616 0 29.0691 6.50749 29.0691 14.5349C21.0417 14.5349 14.5342 8.0274 14.5342 0Z" fill="white"/>
<path d="M14.5349 29.0698C6.50749 29.0698 -7.01777e-07 22.5623 0 14.5349C8.0274 14.5349 14.5349 21.0424 14.5349 29.0698Z" fill="white"/>
</g>
<defs>
<clipPath id="clip0_1_94">
<rect width="125" height="29.0698" fill="white"/>
</clipPath>
</defs>
</svg>
