<svg width="122" height="30" viewBox="0 0 122 30" fill="none" xmlns="http://www.w3.org/2000/svg">
<g clip-path="url(#clip0_1_169)">
<path d="M35.5265 21.0348H44.2579V18.4049H38.6298V8.49878H35.5265V21.0348Z" fill="white"/>
<path d="M49.431 19.2818C48.1862 19.2818 47.5375 18.1947 47.5375 16.5642C47.5375 14.9336 48.1862 13.829 49.431 13.829C50.6759 13.829 51.3421 14.9336 51.3421 16.5642C51.3421 18.1947 50.6759 19.2818 49.431 19.2818ZM49.4486 21.3156C52.3415 21.3156 54.235 19.2642 54.235 16.5642C54.235 13.8641 52.3415 11.8127 49.4486 11.8127C46.5732 11.8127 44.6445 13.8641 44.6445 16.5642C44.6445 19.2642 46.5732 21.3156 49.4486 21.3156Z" fill="white"/>
<path d="M59.2421 24.1381C60.5746 24.1381 61.7493 23.84 62.5383 23.1387C63.2572 22.49 63.7305 21.5082 63.7305 20.1581V12.0579H60.9954V13.0222H60.9603C60.4343 12.2683 59.6278 11.7949 58.4356 11.7949C56.2089 11.7949 54.666 13.6534 54.666 16.2834C54.666 19.036 56.542 20.5439 58.5583 20.5439C59.6454 20.5439 60.3292 20.1055 60.8551 19.5094H60.9253V20.4036C60.9253 21.4906 60.4168 22.1218 59.207 22.1218C58.2603 22.1218 57.7869 21.7186 57.6291 21.2452H54.8589C55.1394 23.1212 56.77 24.1381 59.2421 24.1381ZM59.2246 18.4224C58.1551 18.4224 57.4538 17.5457 57.4538 16.1957C57.4538 14.8281 58.1551 13.9515 59.2246 13.9515C60.4168 13.9515 61.048 14.9684 61.048 16.1782C61.048 17.4405 60.4694 18.4224 59.2246 18.4224Z" fill="white"/>
<path d="M69.3549 19.2818C68.11 19.2818 67.4613 18.1947 67.4613 16.5642C67.4613 14.9336 68.11 13.829 69.3549 13.829C70.5997 13.829 71.2659 14.9336 71.2659 16.5642C71.2659 18.1947 70.5997 19.2818 69.3549 19.2818ZM69.3724 21.3156C72.2653 21.3156 74.1591 19.2642 74.1591 16.5642C74.1591 13.8641 72.2653 11.8127 69.3724 11.8127C66.497 11.8127 64.5684 13.8641 64.5684 16.5642C64.5684 19.2642 66.497 21.3156 69.3724 21.3156Z" fill="white"/>
<path d="M74.9941 21.0348H77.852V12.058H74.9941V21.0348ZM74.9941 10.8131H77.852V8.49878H74.9941V10.8131Z" fill="white"/>
<path d="M79.0909 23.9978H81.9488V20.1055H81.9838C82.5449 20.8594 83.3689 21.3153 84.5261 21.3153C86.8755 21.3153 88.4359 19.4568 88.4359 16.5463C88.4359 13.8463 86.9807 11.7949 84.5962 11.7949C83.3689 11.7949 82.4923 12.3384 81.8786 13.145H81.826V12.0579H79.0909V23.9978ZM83.7897 19.1062C82.5624 19.1062 81.8611 18.1068 81.8611 16.6515C81.8611 15.1963 82.4923 14.0917 83.7371 14.0917C84.9644 14.0917 85.543 15.1086 85.543 16.6515C85.543 18.1769 84.8767 19.1062 83.7897 19.1062Z" fill="white"/>
<path d="M93.0895 21.3153C95.4389 21.3153 97.1747 20.2984 97.1747 18.3347C97.1747 16.0379 95.3162 15.6346 93.7382 15.3716C92.5986 15.1612 91.5817 15.0736 91.5817 14.4424C91.5817 13.8813 92.1252 13.6183 92.8265 13.6183C93.6155 13.6183 94.159 13.8638 94.2642 14.6703H96.8942C96.7539 12.8995 95.3863 11.7949 92.8441 11.7949C90.7226 11.7949 88.9693 12.7768 88.9693 14.6703C88.9693 16.7743 90.6349 17.1951 92.1953 17.4581C93.3876 17.6685 94.4746 17.7561 94.4746 18.5626C94.4746 19.1412 93.9311 19.4568 93.072 19.4568C92.1252 19.4568 91.5291 19.0185 91.4239 18.1243H88.7238C88.8115 20.1055 90.4596 21.3153 93.0895 21.3153Z" fill="white"/>
<path d="M101.055 21.2977C102.3 21.2977 103.089 20.8068 103.738 19.9301H103.79V21.0347H106.526V12.0579H103.668V17.0723C103.668 18.1418 103.072 18.8782 102.09 18.8782C101.178 18.8782 100.74 18.3347 100.74 17.3528V12.0579H97.8994V17.9489C97.8994 19.9477 98.9865 21.2977 101.055 21.2977Z" fill="white"/>
<path d="M107.77 21.0348H110.627V16.0028C110.627 14.9333 111.153 14.1794 112.048 14.1794C112.907 14.1794 113.31 14.7405 113.31 15.7048V21.0348H116.168V16.0028C116.168 14.9333 116.676 14.1794 117.588 14.1794C118.447 14.1794 118.85 14.7405 118.85 15.7048V21.0348H121.708V15.1963C121.708 13.18 120.691 11.7949 118.657 11.7949C117.5 11.7949 116.536 12.2858 115.835 13.3729H115.8C115.344 12.4086 114.45 11.7949 113.275 11.7949C111.977 11.7949 111.118 12.4086 110.557 13.3378H110.505V12.0579H107.77V21.0348Z" fill="white"/>
<path fill-rule="evenodd" clip-rule="evenodd" d="M6.32232 2.84298C5.27717 3.57378 4.33207 4.43783 3.51164 5.41048C6.8643 5.09922 11.1237 5.60747 16.0689 8.08007C21.3497 10.7204 25.602 10.8097 28.5614 10.2388C28.2929 9.4258 27.9548 8.64442 27.5544 7.9016C24.1666 8.25891 19.8236 7.78596 14.7621 5.2553C11.548 3.64826 8.71486 2.98627 6.32232 2.84298ZM25.5754 5.08484C22.9001 2.09573 19.0122 0.2146 14.685 0.2146C13.4142 0.2146 12.1812 0.376857 11.0058 0.681765C12.5977 1.11615 14.2889 1.75164 16.0689 2.64164C19.7746 4.49448 22.974 5.09106 25.5754 5.08484ZM29.1941 13.0926C25.6189 13.7986 20.6818 13.6536 14.7621 10.6937C9.22784 7.92659 4.82304 7.96144 1.85228 8.62162C1.69894 8.65567 1.54921 8.69146 1.40309 8.72872C1.01414 9.57461 0.703676 10.4641 0.480911 11.3878C0.718836 11.3243 0.964695 11.2638 1.21836 11.2074C4.82241 10.4065 9.91462 10.4413 16.0689 13.5185C21.6032 16.2856 26.008 16.2508 28.9788 15.5906C29.0806 15.568 29.1809 15.5446 29.2795 15.5205C29.2903 15.2902 29.2957 15.0584 29.2957 14.8254C29.2957 14.2391 29.2613 13.6609 29.1941 13.0926ZM28.8025 18.6039C25.2619 19.2229 20.4686 18.9853 14.7621 16.1321C9.22784 13.365 4.82304 13.3999 1.85228 14.06C1.19286 14.2065 0.599651 14.385 0.0763592 14.5734C0.0749325 14.6572 0.0742188 14.7412 0.0742188 14.8254C0.0742188 22.8947 6.61568 29.4361 14.685 29.4361C21.4476 29.4361 27.1372 24.8417 28.8025 18.6039Z" fill="white"/>
</g>
<defs>
<clipPath id="clip0_1_169">
<rect width="122" height="29.9521" fill="white"/>
</clipPath>
</defs>
</svg>
