<svg width="132" height="25" viewBox="0 0 132 25" fill="none" xmlns="http://www.w3.org/2000/svg">
<g clip-path="url(#clip0_1_136)">
<path d="M8.89672 20.4115C6.35365 22.9545 2.04667 22.9444 0.843849 19.5551C0.608353 18.8915 0.420066 18.2092 0.28158 17.513C-0.28385 14.6703 0.00634938 11.7239 1.11548 9.04617C2.22462 6.36853 4.10287 4.07987 6.51272 2.46966C8.9226 0.859448 11.7558 -1.24152e-07 14.6541 0C17.5524 1.24152e-07 20.3857 0.859448 22.7955 2.46966C25.2054 4.07987 27.0836 6.36853 28.1927 9.04626C29.3019 11.7239 29.592 14.6703 29.0266 17.513C28.8882 18.2092 28.6999 18.8915 28.4643 19.5551C27.2615 22.9444 22.9545 22.9545 20.4115 20.4115L16.4859 16.4859C16.1108 16.1108 16.1496 15.4923 16.253 14.9721C16.3159 14.6559 16.2836 14.3281 16.1602 14.0302C16.0368 13.7323 15.8279 13.4777 15.5598 13.2986C15.2917 13.1195 14.9765 13.0239 14.6541 13.0239C14.3317 13.0239 14.0165 13.1195 13.7484 13.2986C13.4803 13.4777 13.2714 13.7323 13.148 14.0302C13.0246 14.3281 12.9923 14.6559 13.0552 14.9721C13.1587 15.4923 13.1974 16.1108 12.8223 16.4859L8.89672 20.4115Z" fill="white"/>
<path d="M41.2305 16.8932H45.1695V19.2145H38.2234V6.86987H41.2305V16.8932Z" fill="white"/>
<path d="M50.543 19.355C49.5817 19.355 48.7141 19.1498 47.9404 18.7395C47.1784 18.3292 46.5746 17.743 46.1291 16.981C45.6954 16.219 45.4785 15.328 45.4785 14.3081C45.4785 13.2999 45.7012 12.4148 46.1467 11.6527C46.5923 10.879 47.2018 10.287 47.9755 9.87669C48.7493 9.46638 49.6168 9.26123 50.5781 9.26123C51.5394 9.26123 52.407 9.46638 53.1807 9.87669C53.9544 10.287 54.564 10.879 55.0095 11.6527C55.455 12.4148 55.6778 13.2999 55.6778 14.3081C55.6778 15.3163 55.4491 16.2072 54.992 16.981C54.5465 17.743 53.931 18.3292 53.1455 18.7395C52.3718 19.1498 51.5043 19.355 50.543 19.355ZM50.543 16.7524C51.1174 16.7524 51.6039 16.5414 52.0026 16.1194C52.4129 15.6973 52.618 15.0936 52.618 14.3081C52.618 13.5226 52.4187 12.9189 52.0201 12.4968C51.6332 12.0748 51.1526 11.8638 50.5781 11.8638C49.992 11.8638 49.5055 12.0748 49.1186 12.4968C48.7317 12.9072 48.5383 13.5109 48.5383 14.3081C48.5383 15.0936 48.7259 15.6973 49.101 16.1194C49.4879 16.5414 49.9686 16.7524 50.543 16.7524Z" fill="white"/>
<path d="M60.4723 9.26123C61.164 9.26123 61.7678 9.40192 62.2836 9.68329C62.8111 9.96458 63.2156 10.3339 63.497 10.7911V9.40192H66.504V19.1967C66.504 20.0994 66.3223 20.9142 65.9588 21.641C65.6071 22.3796 65.062 22.9657 64.3235 23.3995C63.5966 23.8333 62.6881 24.0502 61.5978 24.0502C60.1441 24.0502 58.9659 23.7043 58.0632 23.0126C57.1606 22.3326 56.6447 21.4065 56.5157 20.2342H59.4876C59.5814 20.6093 59.8042 20.9024 60.1559 21.1135C60.5075 21.3362 60.9413 21.4476 61.4571 21.4476C62.0785 21.4476 62.5708 21.2658 62.9343 20.9024C63.3094 20.5507 63.497 19.9822 63.497 19.1967V17.8075C63.2039 18.2647 62.7995 18.6399 62.2836 18.9329C61.7678 19.2143 61.164 19.355 60.4723 19.355C59.6635 19.355 58.9307 19.1498 58.2742 18.7395C57.6177 18.3175 57.096 17.7254 56.7092 16.9634C56.3341 16.1897 56.1465 15.2987 56.1465 14.2905C56.1465 13.2823 56.3341 12.3972 56.7092 11.6352C57.096 10.8732 57.6177 10.287 58.2742 9.87669C58.9307 9.46638 59.6635 9.26123 60.4723 9.26123ZM63.497 14.3081C63.497 13.5578 63.286 12.9657 62.8639 12.532C62.4536 12.0983 61.9495 11.8814 61.3516 11.8814C60.7537 11.8814 60.2438 12.0983 59.8217 12.532C59.4114 12.9541 59.2062 13.5402 59.2062 14.2905C59.2062 15.0408 59.4114 15.6387 59.8217 16.0842C60.2438 16.5179 60.7537 16.7348 61.3516 16.7348C61.9495 16.7348 62.4536 16.5179 62.8639 16.0842C63.286 15.6504 63.497 15.0584 63.497 14.3081Z" fill="white"/>
<path d="M72.6191 19.355C71.6578 19.355 70.7903 19.1498 70.0166 18.7395C69.2546 18.3292 68.6508 17.743 68.2053 16.981C67.7716 16.219 67.5547 15.328 67.5547 14.3081C67.5547 13.2999 67.7774 12.4148 68.2229 11.6527C68.6684 10.879 69.278 10.287 70.0517 9.87669C70.8255 9.46638 71.693 9.26123 72.6543 9.26123C73.6156 9.26123 74.4832 9.46638 75.2568 9.87669C76.0306 10.287 76.6402 10.879 77.0857 11.6527C77.5312 12.4148 77.7539 13.2999 77.7539 14.3081C77.7539 15.3163 77.5254 16.2072 77.0681 16.981C76.6227 17.743 76.0072 18.3292 75.2217 18.7395C74.448 19.1498 73.5804 19.355 72.6191 19.355ZM72.6191 16.7524C73.1936 16.7524 73.6801 16.5414 74.0787 16.1194C74.489 15.6973 74.6942 15.0936 74.6942 14.3081C74.6942 13.5226 74.4948 12.9189 74.0963 12.4968C73.7094 12.0748 73.2287 11.8638 72.6543 11.8638C72.0682 11.8638 71.5816 12.0748 71.1947 12.4968C70.8079 12.9072 70.6145 13.5109 70.6145 14.3081C70.6145 15.0936 70.8021 15.6973 71.1772 16.1194C71.5641 16.5414 72.0447 16.7524 72.6191 16.7524Z" fill="white"/>
<path d="M80.3347 8.38187C79.8071 8.38187 79.3734 8.22947 79.0334 7.92467C78.7051 7.60814 78.541 7.22127 78.541 6.76407C78.541 6.29513 78.7051 5.90826 79.0334 5.60345C79.3734 5.28693 79.8071 5.12866 80.3347 5.12866C80.8505 5.12866 81.2726 5.28693 81.6008 5.60345C81.9407 5.90826 82.1107 6.29513 82.1107 6.76407C82.1107 7.22127 81.9407 7.60814 81.6008 7.92467C81.2726 8.22947 80.8505 8.38187 80.3347 8.38187ZM81.8293 9.40182V19.2142H78.8224V9.40182H81.8293Z" fill="white"/>
<path d="M86.4874 10.7911C86.7803 10.3339 87.1849 9.96458 87.7009 9.68329C88.217 9.40192 88.8208 9.26123 89.5123 9.26123C90.3213 9.26123 91.0537 9.46638 91.7103 9.87669C92.3669 10.287 92.883 10.8732 93.2577 11.6352C93.6443 12.3972 93.8385 13.2823 93.8385 14.2905C93.8385 15.2987 93.6443 16.1897 93.2577 16.9634C92.883 17.7254 92.3669 18.3175 91.7103 18.7395C91.0537 19.1498 90.3213 19.355 89.5123 19.355C88.8319 19.355 88.2289 19.2143 87.7009 18.9329C87.1849 18.6515 86.7803 18.2882 86.4874 17.8427V23.8919H83.4806V9.40192H86.4874V10.7911ZM90.7787 14.2905C90.7787 13.5402 90.5675 12.9541 90.1451 12.532C89.7346 12.0983 89.2253 11.8814 88.6156 11.8814C88.0177 11.8814 87.5076 12.0983 87.0852 12.532C86.6756 12.9657 86.4704 13.5578 86.4704 14.3081C86.4704 15.0584 86.6756 15.6504 87.0852 16.0842C87.5076 16.5179 88.0177 16.7348 88.6156 16.7348C89.2134 16.7348 89.7235 16.5179 90.1451 16.0842C90.5675 15.6387 90.7787 15.0408 90.7787 14.2905Z" fill="white"/>
<path d="M98.8798 19.355C98.0239 19.355 97.2617 19.2084 96.5932 18.9154C95.9256 18.6222 95.3976 18.2237 95.0109 17.7195C94.6243 17.2037 94.4071 16.6293 94.3603 15.9962H97.3324C97.3673 16.3362 97.5257 16.6117 97.8068 16.8227C98.0886 17.0337 98.4344 17.1392 98.8449 17.1392C99.2196 17.1392 99.5066 17.0689 99.7059 16.9282C99.9171 16.7759 100.023 16.5824 100.023 16.3479C100.023 16.0666 99.8762 15.8614 99.5832 15.7325C99.2903 15.5918 98.8151 15.4394 98.1585 15.2752C97.4551 15.1111 96.8691 14.9411 96.3999 14.7653C95.9315 14.5778 95.527 14.2905 95.1872 13.9036C94.8466 13.5051 94.6771 12.9716 94.6771 12.3034C94.6771 11.7407 94.8295 11.2308 95.1344 10.7735C95.4504 10.3046 95.9077 9.93528 96.5055 9.66566C97.1153 9.39604 97.8366 9.26123 98.6686 9.26123C99.8992 9.26123 100.867 9.56602 101.57 10.1756C102.285 10.7853 102.696 11.5941 102.801 12.6024H100.023C99.9758 12.2624 99.8234 11.9928 99.5653 11.7934C99.3192 11.5941 98.9914 11.4945 98.5809 11.4945C98.2292 11.4945 97.9592 11.5648 97.7718 11.7055C97.5845 11.8345 97.4908 12.0162 97.4908 12.2506C97.4908 12.532 97.6373 12.743 97.9303 12.8837C98.2351 13.0244 98.7035 13.1651 99.3371 13.3057C100.064 13.4933 100.655 13.6809 101.113 13.8685C101.57 14.0443 101.969 14.3374 102.308 14.7477C102.66 15.1463 102.842 15.6855 102.854 16.3656C102.854 16.94 102.69 17.4558 102.361 17.913C102.045 18.3585 101.582 18.7102 100.972 18.9681C100.374 19.226 99.6769 19.355 98.8798 19.355Z" fill="white"/>
<path d="M113.855 9.40186V19.2142H110.848V17.8778C110.543 18.3115 110.127 18.6632 109.6 18.9329C109.084 19.1908 108.51 19.3197 107.876 19.3197C107.126 19.3197 106.463 19.1556 105.889 18.8273C105.315 18.4874 104.869 18.0008 104.553 17.3678C104.236 16.7348 104.078 15.9904 104.078 15.1345V9.40186H107.067V14.7301C107.067 15.3866 107.237 15.8965 107.577 16.26C107.917 16.6234 108.374 16.8051 108.949 16.8051C109.535 16.8051 109.998 16.6234 110.338 16.26C110.678 15.8965 110.848 15.3866 110.848 14.7301V9.40186H113.855Z" fill="white"/>
<path d="M128.009 9.29663C129.227 9.29663 130.195 9.66589 130.91 10.4045C131.637 11.143 132 12.1688 132 13.4818V19.2145H129.011V13.8863C129.011 13.2532 128.841 12.7667 128.501 12.4267C128.172 12.075 127.716 11.8992 127.129 11.8992C126.543 11.8992 126.08 12.075 125.74 12.4267C125.412 12.7667 125.248 13.2532 125.248 13.8863V19.2145H122.258V13.8863C122.258 13.2532 122.088 12.7667 121.748 12.4267C121.42 12.075 120.962 11.8992 120.377 11.8992C119.791 11.8992 119.327 12.075 118.988 12.4267C118.659 12.7667 118.495 13.2532 118.495 13.8863V19.2145H115.488V9.40215H118.495V10.6331C118.8 10.2228 119.199 9.90034 119.691 9.66589C120.183 9.41969 120.74 9.29663 121.361 9.29663C122.1 9.29663 122.757 9.45486 123.331 9.7714C123.917 10.0879 124.374 10.5393 124.703 11.1255C125.043 10.5861 125.506 10.1465 126.092 9.80658C126.678 9.46661 127.317 9.29663 128.009 9.29663Z" fill="white"/>
</g>
<defs>
<clipPath id="clip0_1_136">
<rect width="132" height="24.6968" fill="white"/>
</clipPath>
</defs>
</svg>
