<svg width="21" height="21" viewBox="0 0 21 21" fill="none" xmlns="http://www.w3.org/2000/svg">
<path d="M17.3307 17.3337H14.3182V12.6146C14.3182 11.4887 14.2948 10.0404 12.7478 10.0404C11.1775 10.0404 10.9375 11.2649 10.9375 12.5312V17.3337H7.92594V7.62794H10.8185V8.95012H10.8581C11.2619 8.18732 12.2454 7.38385 13.714 7.38385C16.7662 7.38385 17.3307 9.39152 17.3307 12.0064V17.3337ZM4.52286 6.29966C3.55259 6.29966 2.77352 5.51551 2.77352 4.55032C2.77352 3.58513 3.5536 2.80098 4.52286 2.80098C4.98681 2.80098 5.43177 2.98529 5.75983 3.31335C6.0879 3.64142 6.2722 4.08637 6.2722 4.55032C6.2722 5.01428 6.0879 5.45923 5.75983 5.78729C5.43177 6.11536 4.98681 6.29966 4.52286 6.29966ZM6.03218 17.3348H3.01151V7.62794H6.03218V17.3348ZM18.838 0H1.50118C0.671259 0 0 0.656003 0 1.46456V18.8766C0 19.6852 0.671259 20.3412 1.50118 20.3412H18.8339C19.6628 20.3412 20.3412 19.6862 20.3412 18.8766V1.46456C20.3412 0.65702 19.6628 0 18.8339 0H18.838Z" fill="white"/>
</svg>
