<svg width="20" height="20" viewBox="0 0 20 20" fill="none" xmlns="http://www.w3.org/2000/svg">
<path d="M9.83603 6.56204C8.02339 6.56204 6.56204 8.03744 6.56204 9.83603C6.56204 11.6346 8.03744 13.11 9.83603 13.11C11.6346 13.11 13.11 11.6346 13.11 9.83603C13.11 8.03744 11.6346 6.56204 9.83603 6.56204ZM19.6721 9.83603C19.6721 8.47304 19.6721 7.13815 19.6018 5.77515C19.5315 4.20139 19.1662 2.79624 18.014 1.65807C16.8618 0.505853 15.4707 0.140515 13.8969 0.0702573C12.5339 -6.80495e-08 11.199 0 9.83603 0C8.47304 0 7.13815 -6.80495e-08 5.77515 0.0702573C4.20139 0.140515 2.79624 0.505853 1.65807 1.65807C0.505853 2.81029 0.140515 4.20139 0.0702573 5.77515C-6.80496e-08 7.13815 0 8.47304 0 9.83603C0 11.199 -6.80496e-08 12.5339 0.0702573 13.8969C0.140515 15.4707 0.505853 16.8758 1.65807 18.014C2.81029 19.1662 4.20139 19.5315 5.77515 19.6018C7.13815 19.6721 8.47304 19.6721 9.83603 19.6721C11.199 19.6721 12.5339 19.6721 13.8969 19.6018C15.4707 19.5315 16.8758 19.1662 18.014 18.014C19.1662 16.8618 19.5315 15.4707 19.6018 13.8969C19.6861 12.548 19.6721 11.199 19.6721 9.83603ZM9.83603 14.8805C7.03979 14.8805 4.79155 12.6323 4.79155 9.83603C4.79155 7.03979 7.03979 4.79155 9.83603 4.79155C12.6323 4.79155 14.8805 7.03979 14.8805 9.83603C14.8805 12.6323 12.6323 14.8805 9.83603 14.8805ZM15.0913 5.7611C14.4449 5.7611 13.911 5.2412 13.911 4.58078C13.911 3.92036 14.4309 3.40046 15.0913 3.40046C15.7517 3.40046 16.2716 3.92036 16.2716 4.58078C16.2752 4.73469 16.2471 4.8877 16.1891 5.03031C16.131 5.17292 16.0444 5.30209 15.9344 5.40982C15.8266 5.5198 15.6975 5.60649 15.5549 5.6645C15.4122 5.72251 15.2592 5.75061 15.1053 5.74705L15.0913 5.7611Z" fill="white"/>
</svg>
